<?xml version="1.0" encoding="UTF-8"?>
<svg enable-background="new 0 0 30 30" version="1.1" viewBox="0 0 30 30" xml:space="preserve" xmlns="http://www.w3.org/2000/svg">
<style type="text/css">
	.st0{fill:none;stroke:#5D6AE2;stroke-width:2;stroke-miterlimit:10;}
	.st1{fill:#5D6AE2;}
</style>
		<circle class="st0" cx="15" cy="15" r="13.8"/>
	<path class="st0" d="M9.1,17.8c0.3,3,2.8,5.2,5.9,5.2c3,0,5.5-2.3,5.9-5.2H9.1z"/>
	<path class="st1" d="m10.9 21.5c1.1 1 2.5 1.6 4.1 1.6 1.5 0 2.9-0.6 3.9-1.5l-0.1-0.1c-3.9-2-7.8-0.1-7.9 0z"/>
	<path class="st1" d="m13.1 11c0-1.3-0.9-2.5-2.3-2.5-1.1 0-1.7 0.8-2 1.5-0.2-0.7-0.8-1.5-1.9-1.5-1.4 0-2.3 1.2-2.3 2.4 0 0.3 0 3.1 4.3 5.4 4.2-2.2 4.2-5 4.2-5.3z"/>
	<path class="st1" d="m25.5 11c0-1.3-0.9-2.5-2.3-2.5-1.1 0-1.7 0.8-2 1.5-0.2-0.7-0.9-1.5-2-1.5-1.4 0-2.3 1.2-2.3 2.4 0 0.3 0 3.1 4.3 5.4 4.3-2.2 4.3-5 4.3-5.3z"/>
</svg>
