<?xml version="1.0" encoding="UTF-8"?>
<svg enable-background="new 0 0 30 30" version="1.1" viewBox="0 0 30 30" xml:space="preserve" xmlns="http://www.w3.org/2000/svg">
<style type="text/css">
	.st0{fill:none;stroke:#5D6AE2;stroke-width:2;stroke-miterlimit:10;}
	.st1{fill:#5D6AE2;}
</style>
		<circle class="st0" cx="15" cy="15.2" r="14"/>
	<path class="st0" d="m5.6 16.5c0.5 4.7 4.5 8.4 9.4 8.4s8.9-3.7 9.4-8.4h-18.8z"/>
	<path class="st1" d="m8.5 22.3c1.7 1.6 4 2.6 6.5 2.6 2.4 0 4.6-0.9 6.3-2.4l-0.1-0.2c-6.3-3.1-12.6-0.1-12.7 0z"/>
			<path class="st1" d="m7.5 14c-0.2 0-0.4-0.1-0.5-0.2-0.2-0.3-0.2-0.6 0.1-0.8l2-1.6-2.1-1.2c-0.2-0.2-0.3-0.6-0.1-0.9 0.1-0.2 0.5-0.3 0.8-0.2l2.8 1.7c0.2 0.1 0.3 0.3 0.3 0.5s-0.1 0.4-0.2 0.5l-2.7 2.1c-0.1 0.1-0.3 0.1-0.4 0.1z"/>
			<path class="st1" d="m22.6 14c-0.1 0-0.3 0-0.4-0.1l-2.7-2.1c-0.2-0.1-0.2-0.3-0.2-0.5s0.1-0.4 0.3-0.5l2.8-1.7c0.3-0.2 0.6-0.1 0.8 0.2s0.1 0.6-0.2 0.8l-2.1 1.2 2 1.6c0.3 0.2 0.3 0.6 0.1 0.8-0.1 0.2-0.2 0.3-0.4 0.3z"/>
</svg>
