<?xml version="1.0" encoding="utf-8"?>
<!-- Generator: Adobe Illustrator 19.0.0, SVG Export Plug-In . SVG Version: 6.00 Build 0)  -->
<svg version="1.1" id="Camada_1" xmlns="http://www.w3.org/2000/svg" xmlns:xlink="http://www.w3.org/1999/xlink" x="0px" y="0px"
	 viewBox="0 0 30 30" style="enable-background:new 0 0 30 30;" xml:space="preserve">
<style type="text/css">
	.st0{fill:none;stroke:#5D6AE2;stroke-width:2;stroke-miterlimit:10;}
	.st1{fill:#5D6AE2;}
</style>
<g id="XMLID_6_">
	<g id="XMLID_13_">
		<circle id="XMLID_4_" class="st0" cx="15" cy="15" r="13.9"/>
	</g>
	<g id="XMLID_8_">
		<g id="XMLID_11_">
			<path id="XMLID_3_" class="st1" d="M7.5,16.3c-0.2,0-0.3-0.1-0.5-0.2c-0.2-0.3-0.2-0.6,0.1-0.8l2-1.6l-2.1-1.2
				c-0.3-0.2-0.4-0.5-0.2-0.8c0.2-0.3,0.5-0.4,0.8-0.2l2.8,1.7c0.2,0.1,0.3,0.3,0.3,0.5c0,0.2-0.1,0.4-0.2,0.5l-2.7,2.1
				C7.8,16.3,7.6,16.3,7.5,16.3z"/>
		</g>
		<g id="XMLID_9_">
			<path id="XMLID_2_" class="st1" d="M22.5,16.3c-0.1,0-0.3,0-0.4-0.1l-2.7-2.1c-0.2-0.1-0.2-0.3-0.2-0.5c0-0.2,0.1-0.4,0.3-0.5
				l2.8-1.7c0.3-0.2,0.6-0.1,0.8,0.2c0.2,0.3,0.1,0.6-0.2,0.8l-2.1,1.2l2,1.6c0.3,0.2,0.3,0.6,0.1,0.8
				C22.8,16.2,22.7,16.3,22.5,16.3z"/>
		</g>
	</g>
	<path id="XMLID_1_" class="st1" d="M19.8,17.3c0.2,0,0.3,0.1,0.4,0.2l1.9,2.3c0.2,0.2,0.2,0.6-0.1,0.8c-0.2,0.2-0.6,0.2-0.8-0.1
		l-1.4-1.7l-2,2.9c-0.1,0.2-0.3,0.3-0.5,0.3c0,0,0,0,0,0c-0.2,0-0.4-0.1-0.5-0.3L15,18.9l-1.9,2.9C13,21.9,12.8,22,12.6,22
		c0,0,0,0,0,0c-0.2,0-0.4-0.1-0.5-0.3l-2-2.9l-1.4,1.7c-0.2,0.2-0.6,0.3-0.8,0.1c-0.2-0.2-0.3-0.6-0.1-0.8l1.9-2.3
		c0.1-0.1,0.3-0.2,0.5-0.2c0.2,0,0.3,0.1,0.4,0.3l1.9,2.9l1.9-2.9c0.1-0.2,0.3-0.3,0.5-0.3c0.2,0,0.4,0.1,0.5,0.3l1.9,2.9l1.9-2.9
		C19.4,17.4,19.6,17.3,19.8,17.3C19.8,17.3,19.8,17.3,19.8,17.3z"/>
</g>
</svg>
