<?xml version="1.0" encoding="UTF-8"?>
<svg enable-background="new 0 0 30 30" version="1.1" viewBox="0 0 30 30" xml:space="preserve" xmlns="http://www.w3.org/2000/svg">
<style type="text/css">
	.st0{fill:none;stroke:#5D6AE2;stroke-width:2;stroke-miterlimit:10;}
	.st1{fill:#5D6AE2;}
</style>
		<circle class="st0" cx="15.1" cy="15.3" r="13.8"/>
	<ellipse class="st0" cx="15.1" cy="18.6" rx="2.5" ry="4.2"/>
	<path class="st1" d="m17.2 20.8c-1.8-1-3.3-0.4-4.1 0.1 0.4 1.1 1.2 1.8 2 1.8 0.8 0.1 1.6-0.7 2.1-1.9z"/>
		<path class="st1" d="M10.8,15l-3.6,2l0.1,10c1.1,0.6,2.3,1.1,3.5,1.5V15z"/>
		<path class="st1" d="M19.3,15l3.6,2l-0.1,10c-1.1,0.6-2.3,1.1-3.5,1.5V15z"/>
			<path class="st1" d="m7.6 15.3c-0.2 0-0.3-0.1-0.5-0.2-0.1-0.3-0.1-0.7 0.2-0.9l2-1.5-2.1-1.2c-0.3-0.2-0.4-0.5-0.2-0.8s0.5-0.4 0.8-0.2l2.8 1.6c0.2 0.1 0.3 0.3 0.3 0.5s-0.1 0.4-0.2 0.5l-2.7 2c-0.1 0.1-0.3 0.2-0.4 0.2z"/>
			<path class="st1" d="m22.5 15.3c-0.1 0-0.3 0-0.4-0.1l-2.7-2.1c-0.2-0.1-0.2-0.3-0.2-0.5s0.1-0.4 0.3-0.5l2.8-1.6c0.3-0.2 0.6-0.1 0.8 0.2s0.1 0.6-0.2 0.8l-2.1 1.2 2 1.5c0.3 0.2 0.3 0.6 0.1 0.8-0.1 0.2-0.2 0.3-0.4 0.3z"/>
</svg>
