<?xml version="1.0" encoding="UTF-8"?>
<svg enable-background="new 0 0 30 30" version="1.1" viewBox="0 0 30 30" xml:space="preserve" xmlns="http://www.w3.org/2000/svg">
<style type="text/css">
	.st0{fill:none;stroke:#5D6AE2;stroke-width:2;stroke-miterlimit:10;}
	.st1{fill:#5D6AE2;}
</style>
		<circle class="st0" cx="15" cy="15" r="13.9"/>
	<circle class="st0" cx="8.8" cy="12.5" r="3.2"/>
	<path class="st1" d="m11 10.2c-0.6-0.6-1.4-0.9-2.2-0.9-0.6 0-1.1 0.2-1.6 0.4-0.1 0.2-0.2 0.3-0.2 0.4-0.1 0.7 0.8 1.3 1.9 1.4s2.1-0.3 2.1-1c0.1-0.1 0-0.2 0-0.3z"/>
		<circle class="st0" cx="21.2" cy="12.5" r="3.2"/>
		<path class="st1" d="m23.4 10.2c-0.6-0.6-1.4-0.9-2.2-0.9-0.6 0-1.1 0.2-1.6 0.4-0.1 0.1-0.2 0.3-0.2 0.4-0.1 0.7 0.8 1.3 1.9 1.4s2.1-0.3 2.1-1c0.1-0.1 0.1-0.2 0-0.3z"/>
	<path class="st1" d="m20.2 18.2c-0.7-0.7-1.6-1.1-2.6-1.4-1-0.2-2-0.2-3-0.1-1 0.2-1.9 0.6-2.7 1.1-0.9 0.6-1.6 1.3-2 2.1-0.1 0.1-0.1 0.3 0 0.4s0.1 0.1 0.2 0.1h0.1l0.3-0.2c0.7-0.4 1.4-0.7 2.1-1 0.8-0.3 1.6-0.5 2.3-0.7 0.8-0.2 1.6-0.2 2.4-0.2 0.7 0 1.5 0.1 2.5 0.3 0.1 0 0.3 0 0.3-0.2 0.2 0 0.2-0.1 0.1-0.2z"/>
</svg>
