<?xml version="1.0" encoding="UTF-8"?>
<svg enable-background="new 0 0 25 25" version="1.1" viewBox="0 0 25 25" xml:space="preserve" xmlns="http://www.w3.org/2000/svg">
<style type="text/css">
	.st0{fill:none;stroke:#5D6AE2;stroke-miterlimit:10;}
	.st1{fill:#5D6AE2;}
</style>
	<circle class="st0" cx="12.5" cy="12.5" r="11.1"/>
			<ellipse class="st1" cx="8.4" cy="9.8" rx=".8" ry="1.4"/>
			<ellipse class="st1" cx="16.6" cy="9.8" rx=".8" ry="1.4"/>
	<path class="st1" d="m19.1 7.5c-0.1 0-0.2-0.1-0.4-0.1-0.3-0.1-0.5-0.1-0.7-0.2-0.3-0.1-0.6-0.2-0.9-0.4s-0.6-0.3-0.8-0.6c-0.3-0.2-0.6-0.5-0.8-0.7h-0.1c0 0.4 0.2 0.8 0.4 1.1 0.2 0.4 0.5 0.6 0.9 0.8s0.7 0.3 1.1 0.3c0.5 0.1 0.9 0 1.3-0.2z"/>
	<path class="st1" d="m5.9 7.5c0.1 0 0.2-0.1 0.4-0.1 0.2-0.1 0.5-0.2 0.7-0.3 0.3-0.1 0.6-0.2 0.9-0.4s0.6-0.3 0.8-0.6c0.4-0.1 0.6-0.4 0.9-0.6h0.1c0 0.4-0.2 0.8-0.4 1.1-0.3 0.4-0.6 0.6-1 0.8s-0.8 0.3-1.2 0.4c-0.4 0-0.8-0.1-1.2-0.3z"/>
<path class="st1" d="m8.3 18.2c-0.1 0-0.2-0.1-0.2-0.2 0-0.5 0.1-1 0.4-1.5 0.2-0.5 0.6-0.9 1-1.2 0.8-0.7 1.9-1.1 3-1.1s2.2 0.4 3 1.1 1.4 1.8 1.4 2.7c0 0.1-0.1 0.3-0.2 0.2-0.1 0-0.2-0.2-0.3-0.2-0.1-0.1-0.2-0.2-0.4-0.3-0.3-0.2-0.5-0.3-0.8-0.5-1-0.5-2.1-0.8-3.3-0.7-0.7 0.1-1.4 0.3-2.1 0.6-0.4 0.2-0.8 0.4-1.1 0.7 0 0.1-0.2 0.3-0.4 0.4z"/>
</svg>
