<?xml version="1.0" encoding="UTF-8"?>
<svg enable-background="new 0 0 30 30" version="1.1" viewBox="0 0 30 30" xml:space="preserve" xmlns="http://www.w3.org/2000/svg">
<style type="text/css">
	.st0{fill:none;stroke:#5D6AE2;stroke-width:2;stroke-miterlimit:10;}
	.st1{fill:#5D6AE2;}
</style>
		<circle class="st0" cx="15" cy="15" r="13.9"/>
			<ellipse class="st1" cx="9.9" cy="12.4" rx="1" ry="1.7"/>
			<ellipse class="st1" cx="20.1" cy="12.4" rx="1" ry="1.7"/>
	<path class="st1" d="m20.7 21.2c0.4 0.3 0.9 0 0.7-0.5-1-2.6-3.5-4.4-6.5-4.4-2.9 0-5.3 1.7-6.4 4.2-0.1 0.5 0.5 0.9 0.8 0.5 2-1.9 6.4-4.7 11.4 0.2z"/>
		<rect class="st1" transform="matrix(.7071 -.7071 .7071 .7071 -3.1703 10.225)" x="10.1" y="6.7" width="1.3" height="4.4"/>
		<rect class="st1" transform="matrix(.7071 .7071 -.7071 .7071 11.957 -10.989)" x="18.6" y="6.7" width="1.3" height="4.4"/>
</svg>
