<?xml version="1.0" encoding="utf-8"?>
<!-- Generator: Adobe Illustrator 19.0.0, SVG Export Plug-In . SVG Version: 6.00 Build 0)  -->
<svg version="1.1" id="Camada_1" xmlns="http://www.w3.org/2000/svg" xmlns:xlink="http://www.w3.org/1999/xlink" x="0px" y="0px"
	 viewBox="0 0 130 100" style="enable-background:new 0 0 130 100;" xml:space="preserve">
<style type="text/css">
	.st0{fill:#FBC0BA;}
	.st1{fill:#9AB9BB;}
	.st2{fill:#FFD38E;}
	.st3{fill:#F8C681;}
	.st4{opacity:0.15;}
	.st5{fill:#EE7668;}
	.st6{fill:#C6564E;}
	.st7{fill:#994039;}
	.st8{fill:#AA4A43;}
	.st9{fill:#F3DEBF;}
	.st10{fill:#4E5F97;}
	.st11{fill:#758AC6;}
	.st12{opacity:0.17;fill:#4E5F97;}
	.st13{opacity:0.14;}
	.st14{fill:#87524D;}
	.st15{fill:#5E8685;}
	.st16{fill:#4C706E;}
	.st17{fill:#68B5B1;}
	.st18{opacity:0.28;}
	.st19{opacity:0.19;}
</style>
<g id="XMLID_2_">
	<path id="XMLID_133_" class="st0" d="M122,61.8c-2.9-9.1-15.5-10.5-15.5-10.5l-0.8-8.1l-3-1.1v-0.6l-0.7,0.3l-0.7-0.3v0.6l-3,1.1
		l-0.8,8.1c0,0-12.6,1.4-15.5,10.5c-1.9,6.1,10.8,10,19.3,12.8v0.5c0.2-0.1,0.5-0.2,0.7-0.2c0.3,0.1,0.5,0.2,0.7,0.2v-0.5
		C111.2,71.8,123.9,67.9,122,61.8z"/>
	<g id="XMLID_130_">
		<path id="XMLID_44_" class="st1" d="M122,61.8c-2.3-7.4-11.1-9.7-14.3-10.3c-1.5,1.2-3.3,1.9-5.2,2c-2.1,0-4.1-0.7-5.7-2
			c-2.6,0.4-12.4,2.5-14.9,10.4c-1.9,6.1,10.8,10,19.3,12.8v0.5c0.2-0.1,0.5-0.2,0.7-0.2c0.3,0.1,0.5,0.2,0.7,0.2v-0.5
			C111.2,71.8,123.9,67.9,122,61.8z"/>
	</g>
	<g id="XMLID_127_">
		<path id="XMLID_42_" class="st2" d="M122,61.8c-1.7-5.4-6.9-8.1-10.9-9.4c0,0.1-0.1,0.1-0.1,0.2c-1.7,2-3.9,3.8-6.5,4.4
			c-2.7,0.7-5.6,0.1-7.8-1.6c-1.2-0.9-2.1-2.1-2.8-3.4c-4,1.1-10.1,3.8-12,9.7c-1.9,6.1,10.8,10,19.3,12.8v0.5
			c0.2-0.1,0.5-0.2,0.7-0.2c0.3,0.1,0.5,0.2,0.7,0.2v-0.5C111.2,71.8,123.9,67.9,122,61.8z"/>
	</g>
	<g id="XMLID_125_">
		<path id="XMLID_126_" class="st3" d="M115.4,54.3c-1.4,5.3-0.9,11,1.4,16c0.1,0.2,0.4,0,0.3-0.2c-2.2-4.9-2.6-10.5-1.3-15.7
			C115.8,54.2,115.4,54.1,115.4,54.3L115.4,54.3z"/>
	</g>
	<path id="XMLID_124_" class="st3" d="M88.7,70c0.1,0.1,0.2,0.1,0.3,0.2c1.3-5.3,1.3-10.8-0.2-16.1c-0.1,0.1-0.2,0.1-0.3,0.2
		C90,59.4,90,64.8,88.7,70z"/>
	<g id="XMLID_121_" class="st4">
		<path id="XMLID_40_" class="st5" d="M106.3,49.2l-0.6-6l-3-1.1v-0.6l-0.7,0.3l-0.7-0.3v0.6l-3,1.1l-0.6,5.7
			C100.4,49.6,103.4,49.7,106.3,49.2z"/>
	</g>
	<g id="XMLID_118_">
		<path id="XMLID_38_" class="st2" d="M117.4,33.2c1.8-1.2,2.8-3.2,3.3-5.3c0.8-3.2,1.5-9.5-2.1-11.4c-0.4-0.2-0.8-0.4-1.1-0.7
			c-0.7-0.8-0.2-2,0.1-3.1c0.5-2.1-0.4-4.8-2.3-5.9c-1.3-0.8-2.9-1-4.4-0.9c-2.1,0.1-4.4,1-6.4,0c-2-1-3.1-2.6-5.6-2.6
			c-2.3,0-4.5,0.9-6.2,2.4c-0.6,0.5-1.1,1.2-1.9,1.4c-0.9,0.3-1.9-0.1-2.9-0.2c-2.2-0.4-4.6,0.2-6.3,1.6c-2.6,2.1-4.2,7.4-1.8,10.2
			c0.9,1,2.3,1.7,2.7,3c0.3,1-0.3,2-0.5,3c-0.5,1.6-0.3,3.5,0.6,4.9c1,1.4,2.8,2.2,4.4,1.7"/>
	</g>
	<g id="XMLID_115_">
		<path id="XMLID_36_" class="st0" d="M88.8,29.1c-0.9-0.6-2.1-0.4-3,0.2c-0.9,0.6-1.4,1.6-1.5,2.7c-0.1,1.1,0.1,2.1,0.4,3.1
			c0.4,1.1,0.9,2.2,1.8,3c0.9,0.8,2.2,1.2,3.3,0.8"/>
	</g>
	<g id="XMLID_112_">
		<path id="XMLID_34_" class="st0" d="M115.1,29.1c0.9-0.6,2.1-0.4,3,0.2c0.9,0.6,1.4,1.6,1.5,2.7c0.1,1.1-0.1,2.1-0.4,3.1
			c-0.4,1.1-0.9,2.2-1.8,3c-0.9,0.8-2.2,1.2-3.3,0.8"/>
	</g>
	<g id="XMLID_103_">
		<g id="XMLID_110_">
			<path id="XMLID_111_" class="st6" d="M85.8,31.6c2.4,1,3.2,3.5,3.8,5.8c0.1,0.2,0.4,0.1,0.3-0.1c-0.7-2.4-1.5-5-4-6
				C85.8,31.2,85.6,31.5,85.8,31.6L85.8,31.6z"/>
		</g>
		<g id="XMLID_108_">
			<path id="XMLID_109_" class="st6" d="M117.8,31.3c-2.5,1-3.3,3.7-4,6c-0.1,0.2,0.3,0.3,0.3,0.1c0.7-2.3,1.5-4.8,3.8-5.8
				C118.2,31.5,118,31.2,117.8,31.3L117.8,31.3z"/>
		</g>
		<g id="XMLID_106_">
			<path id="XMLID_107_" class="st6" d="M115.9,32.8c0.9,1.3,0.6,3-0.7,3.9c-0.2,0.1,0,0.4,0.2,0.3c1.5-1,1.9-2.9,0.8-4.4
				C116.1,32.4,115.8,32.6,115.9,32.8L115.9,32.8z"/>
		</g>
		<g id="XMLID_104_">
			<path id="XMLID_105_" class="st6" d="M87.4,32.7c-0.6,1.6-0.4,3.6,1.5,4.2c0.2,0.1,0.3-0.3,0.1-0.3c-1.7-0.5-1.8-2.4-1.2-3.8
				C87.8,32.6,87.5,32.5,87.4,32.7L87.4,32.7z"/>
		</g>
	</g>
	<g id="XMLID_100_">
		<path id="XMLID_32_" class="st0" d="M114.7,16.8c-1.5-5-7.9-6.8-12.9-6.6c-5-0.2-11.4,1.6-12.9,6.6c-1.3,4.2-1.5,8.7-1.1,13.1
			c0.3,3.5,0.7,9.1,3.1,11.9c2.7,3.2,6.8,4.4,10.9,4.4c4.1,0,8.2-1.3,10.9-4.4c2.4-2.8,2.8-8.3,3.1-11.9
			C116.2,25.5,116,21,114.7,16.8z"/>
	</g>
	<g id="XMLID_98_">
		<path id="XMLID_99_" class="st6" d="M102,31.3c-1-0.4-2.6-0.3-3,0.9c-0.4,1.1,0.8,2.3,1.8,2.6c0.2,0.1,0.3-0.3,0.1-0.3
			c-0.9-0.2-2-1.4-1.5-2.3c0.5-0.9,1.7-0.8,2.5-0.5C102.1,31.7,102.2,31.4,102,31.3L102,31.3z"/>
	</g>
	<g id="XMLID_96_">
		<path id="XMLID_97_" class="st6" d="M98.7,36c1.1,1.8,3.7,1.7,4.6-0.2c0.1-0.2-0.2-0.4-0.3-0.2c-0.8,1.7-3,1.9-4,0.2
			C98.9,35.6,98.6,35.8,98.7,36L98.7,36z"/>
	</g>
	<g id="XMLID_93_">
		<path id="XMLID_30_" class="st7" d="M93.6,22.6c-1.3,0.3-3,1.1-3.7,2.3c-0.5,1,0.5,1.5,1.3,1.6c1.2,0.1,6.9-1.5,4.4-3.5
			c-1.2-0.9-3.4-0.3-4.4,0.5"/>
	</g>
	<g id="XMLID_90_">
		<path id="XMLID_28_" class="st7" d="M108.3,22.6c1.3,0.3,3,1.1,3.7,2.3c0.5,1-0.5,1.5-1.3,1.6c-1.2,0.1-6.9-1.5-4.4-3.5
			c1.2-0.9,3.4-0.3,4.4,0.5"/>
	</g>
	<ellipse id="XMLID_89_" class="st8" cx="95" cy="31.8" rx="1" ry="2.1"/>
	<ellipse id="XMLID_88_" class="st8" cx="107" cy="31.8" rx="1" ry="2.1"/>
	<g id="XMLID_85_" class="st4">
		<path id="XMLID_26_" class="st5" d="M89.7,15.3c0.3,2.3,1.8,4.4,3.9,5.6c2,1.2,4.4,1.6,6.8,1.5c1.3-0.1,2.7-0.2,3.7,0.7
			c0.9,0.9,1.5,1.6,3,1.8c0.2,0,0.4,0,0.5,0.1c0.2,0.2,0.3,0.5,0.3,0.7c0.2,1.4,0.6,2.7,1.2,3.9c0.5,1,1.2,2,2.1,2.7
			c0.9,0.7,2.1,1,3.2,0.7c0.2-2.2,0.8-4.4,1.3-6.6c0.4-2.2,0.6-4.5,0-6.7c-0.9-3-3.2-5.3-5.9-6.8c-2.7-1.5-5.7-2.2-8.8-2.8
			c-1.5-0.3-3.1-0.6-4.6-0.6"/>
	</g>
	<g id="XMLID_82_">
		<path id="XMLID_24_" class="st2" d="M113,15c-1.8,0.6-3.2,2.4-3.2,4.4c0,1.8,1,3.4,1.2,5.2c0.1,0.9-0.1,1.7-0.2,2.5
			c-0.1,1.2,0.3,2.5,0.7,3.5c0.4,1,0.9,2.1,1.9,2.6c1.4,0.7,2.3-0.5,3-1.5c1.1-1.5,2-3.2,1.8-5.2c-0.2-1.8-1-3.5-1.3-5.3
			c-0.3-1.9-0.2-6.2-2.7-6.8"/>
	</g>
	<g id="XMLID_79_">
		<path id="XMLID_46_" class="st2" d="M89.8,9.9c-0.9,1.9-0.6,4.4,0.7,6.1c1.3,1.7,3.4,2.7,5.6,2.8c1.7,0,3.3-0.4,4.9,0.1
			c1.5,0.4,2.6,1.7,4,2.3c1.5,0.7,3.2,0.9,4.9,0.8c1.7,0,3.5-0.3,4.6-1.6c0.6-0.7,0.9-1.7,0.9-2.6c0.1-2.9-2-5.6-4.5-7
			c-2.6-1.4-5.6-1.8-8.5-1.9c-4.3-0.2-8.7-0.1-12.7,1.3"/>
	</g>
	<g id="XMLID_76_" class="st4">
		<path id="XMLID_51_" class="st5" d="M102.2,31.8c-0.6-0.2-1.1-0.3-1.7-0.3s-1.2,0.3-1.4,0.8c-0.3,0.5-0.1,1.2,0.3,1.7
			c0.4,0.5,0.9,0.8,1.4,1.1c0.1,0.1,0.2,0.1,0.4,0.1c0.1,0,0.1-0.1,0.2-0.1c0.9-1,1.1-2.4,0.7-3.7"/>
	</g>
	<polygon id="XMLID_75_" class="st9" points="98.7,66.1 123.9,53.7 127.2,57.2 104.8,68.2 	"/>
	<polygon id="XMLID_74_" class="st9" points="102.9,67.6 80,55 74.3,57.5 99.2,69.2 	"/>
	<path id="XMLID_73_" class="st10" d="M126.5,56.6l-22.2,9.4l-3.2,0v0l-0.8,0l-0.8,0v0l-3,0l-21.7-9.4c-0.9-0.4-1.9,0.3-1.8,1.3
		l0.7,32.4c0,0.6,0.4,1.1,0.9,1.2l21.5,8.2c0,0,1.8,1.2,4.2,1.1c2.5,0.1,4.2-1.1,4.2-1.1l22.2-8.2c0.5-0.2,0.9-0.7,0.9-1.2l0.7-32.4
		C128.4,56.9,127.4,56.2,126.5,56.6z"/>
	<g id="XMLID_69_">
		<path id="XMLID_70_" class="st11" d="M94.7,97.4l-0.1,0l-19.3-6.8l0-0.1l-1-31.6L95,67.7L94.7,97.4z M75.4,90.4l19.1,6.7l0.4-29.2
			l-20.4-8.7L75.4,90.4z"/>
	</g>
	<path id="XMLID_68_" class="st12" d="M104.2,65.9l-3.1,0v0l-0.8,0l-0.8,0v0l-3,0l-0.1-0.1v34c0.6,0.3,2.1,1,4,0.9
		c1.8,0.1,3.3-0.6,3.9-0.9V65.9z"/>
	<circle id="XMLID_67_" class="st2" cx="100.3" cy="96.4" r="2.2"/>
	<rect id="XMLID_66_" x="97.4" y="68.8" class="st2" width="5.7" height="2.3"/>
	<polygon id="XMLID_65_" class="st11" points="96.4,83.7 104.2,80.5 104.2,78.1 96.4,81.2 	"/>
	<polygon id="XMLID_64_" class="st11" points="96.4,88.2 104.2,85 104.2,82.6 96.4,85.7 	"/>
	<g id="XMLID_60_">
		<path id="XMLID_61_" class="st11" d="M106.2,97.4l0-0.2L106,66.9l20.8-8.7l0,0.2l-0.6,31.3l-0.1,0L106.2,97.4z M106.2,67l0.2,30
			l19.6-7.6l0.6-31L106.2,67z"/>
	</g>
	<g id="XMLID_57_" class="st13">
		<path id="XMLID_55_" class="st10" d="M123.4,82.3c-5.6-0.2-11.2,0.6-16.8,0.9c-4.9,0.2-9.8,0-14.5-1.4c-4.7-1.4-9.1-4.1-11.9-8
			c-3.4-4.7-4.3-10.7-3.8-16.5l-1.6-0.7c-0.9-0.4-1.9,0.3-1.8,1.3l0.7,32.4c0,0.6,0.4,1.1,0.9,1.2l21.5,8.2c0,0,1.8,1.2,4.2,1.1
			c2.5,0.1,4.2-1.1,4.2-1.1l22.2-8.2c0.5-0.2,0.9-0.7,0.9-1.2l0.2-7.5C126.4,82.6,124.9,82.4,123.4,82.3z"/>
	</g>
	<g id="XMLID_48_">
		<g id="XMLID_54_">
			<path id="XMLID_58_" class="st0" d="M128.7,77.2C128.6,77.1,128.6,77.1,128.7,77.2c0.3-0.3,0.5-0.7,0.5-1.1
				c0-0.4-0.1-0.8-0.4-1.1c0.1-0.4,0.3-0.7,0.2-1.1c-0.1-0.3-0.3-0.6-0.6-0.9c0-0.2,0-0.4,0-0.6c-0.1-0.4-0.4-0.7-0.7-1
				c-0.6-0.5-1.2-0.9-2-0.9c-0.2,0-0.4,0-0.5,0.2c-0.1,0.2-0.1,0.4,0,0.6c0.3,0.7,0.9,1.2,1.6,1.6c-0.8-0.1-1.7,0.1-2.4,0.5
				c-0.2,0.1-0.5,0.3-0.5,0.6c0,0.3,0.3,0.5,0.6,0.6c0.6,0.3,1.3,0.4,1.9,0.3c-0.5,0-1.1,0.2-1.6,0.4c-0.3,0.1-0.6,0.3-0.7,0.6
				c0,0.2,0.1,0.4,0.2,0.5c0.1,0.1,0.3,0.2,0.5,0.3c0.5,0.2,1,0.3,1.5,0.2c-0.3,0.1-0.6,0.3-0.9,0.5c-0.2,0.2-0.4,0.4-0.5,0.6
				c-0.1,1,1.4,0.9,2,0.9c0.6,0,1.3,0,1.7-0.5c0.2-0.2,0.2-0.4,0.2-0.6C128.7,77.9,128.7,77.4,128.7,77.2z"/>
		</g>
		<path id="XMLID_53_" class="st0" d="M126.5,72.8c0.1,0,0.1,0.1,0.2,0.1c-0.2,0-0.4,0-0.5,0c0.8,0.1,1.6,0.2,2.4,0.4
			c-0.1-0.1-0.1-0.1-0.2-0.2c0,0,0,0,0,0C127.8,73,127.2,72.8,126.5,72.8z"/>
		<g id="XMLID_50_">
			<path id="XMLID_77_" class="st0" d="M128.8,75.1C128.8,75.1,128.8,75.1,128.8,75.1c0-0.1,0-0.1,0-0.1c-0.9-0.1-1.9-0.1-2.8,0
				c0.1,0,0.2,0,0.3,0c-0.4,0-0.8,0.1-1.2,0.2c0,0,0,0,0.1,0C126.4,75,127.6,75,128.8,75.1z"/>
		</g>
		<path id="XMLID_49_" class="st0" d="M126.2,77c-0.2,0.1-0.3,0.1-0.5,0.2c1-0.2,2-0.2,3-0.2c0,0,0.1-0.1,0.1-0.1
			C127.9,76.8,127.1,76.9,126.2,77z"/>
	</g>
	<g id="XMLID_3_">
		<g id="XMLID_45_">
			<path id="XMLID_80_" class="st0" d="M73.4,77.2C73.5,77.1,73.5,77.1,73.4,77.2c-0.3-0.3-0.5-0.7-0.5-1.1c0-0.4,0.1-0.8,0.4-1.1
				c-0.1-0.4-0.3-0.7-0.2-1.1c0.1-0.3,0.3-0.6,0.6-0.9c0-0.2,0-0.4,0-0.6c0.1-0.4,0.4-0.7,0.7-1c0.6-0.5,1.2-0.9,2-0.9
				c0.2,0,0.4,0,0.5,0.2c0.1,0.2,0.1,0.4,0,0.6c-0.3,0.7-0.9,1.2-1.6,1.6c0.8-0.1,1.7,0.1,2.4,0.5c0.2,0.1,0.5,0.3,0.5,0.6
				c0,0.3-0.3,0.5-0.6,0.6c-0.6,0.3-1.3,0.4-1.9,0.3c0.5,0,1.1,0.2,1.6,0.4c0.3,0.1,0.6,0.3,0.7,0.6c0,0.2-0.1,0.4-0.2,0.5
				c-0.1,0.1-0.3,0.2-0.5,0.3c-0.5,0.2-1,0.3-1.5,0.2c0.3,0.1,0.6,0.3,0.9,0.5c0.2,0.2,0.4,0.4,0.5,0.6c0.1,1-1.4,0.9-2,0.9
				c-0.6,0-1.3,0-1.7-0.5c-0.2-0.2-0.2-0.4-0.2-0.6C73.4,77.9,73.4,77.4,73.4,77.2z"/>
		</g>
		<path id="XMLID_43_" class="st0" d="M75.5,72.8c-0.1,0-0.1,0.1-0.2,0.1c0.2,0,0.4,0,0.5,0c-0.8,0.1-1.6,0.2-2.4,0.4
			c0.1-0.1,0.1-0.1,0.2-0.2c0,0,0,0,0,0C74.3,73,74.9,72.8,75.5,72.8z"/>
		<g id="XMLID_5_">
			<path id="XMLID_114_" class="st0" d="M73.3,75.1C73.3,75.1,73.3,75.1,73.3,75.1c0-0.1,0-0.1,0-0.1c0.9-0.1,1.9-0.1,2.8,0
				c-0.1,0-0.2,0-0.3,0c0.4,0,0.8,0.1,1.2,0.2c0,0,0,0-0.1,0C75.7,75,74.5,75,73.3,75.1z"/>
		</g>
		<path id="XMLID_4_" class="st0" d="M75.9,77c0.2,0.1,0.3,0.1,0.5,0.2c-1-0.2-2-0.2-3-0.2c0,0-0.1-0.1-0.1-0.1
			C74.2,76.8,75,76.9,75.9,77z"/>
	</g>
</g>
<g id="XMLID_6_">
	<g id="XMLID_198_">
		<path id="XMLID_122_" class="st14" d="M61.6,71.1c7.3,2,14.7-4.1,16.9-10.8c2.3-7.1-1.2-15.6-6.9-20.2c-2-1.6-4.9-3-6.1-5.4
			c-1.1-2.2-1.3-5.1-1.4-7.5C64,22.2,64.9,16.4,61.7,12c-2.2-3.1-5.8-4.5-9.5-3.9c-3.5,0.6-6.4,3-9.7,4.3c-3.8,1.4-7.9,1.1-11.8,1.6
			c-1.1,0.1-2.2,0.3-3.1,0.9C22.2,18,26.4,26,23.4,30.4c-1.9,2.8-5.4,3.8-8.2,5.6c-2.9,1.8-5.2,4.6-6.1,7.9c-1,3.3-0.5,7,1.5,9.7
			c1.1,1.6,2.7,2.9,3.2,4.7c0.4,1.4,0.2,2.9,0.4,4.4c0.4,2.2,2.1,4,3.8,5.5c3.3,2.8,7.3,4.8,11.6,5.2c9,0.7,17.7-6.3,26.5-4.2
			C57.9,69.7,59.7,70.6,61.6,71.1z"/>
	</g>
	<path id="XMLID_197_" class="st5" d="M41.8,43.1l-0.4,9.9c0,0-16.2-2.9-17.9,8.1c-1.7,10.9,1.2,3.5,1.2,3.5L40,85l16,6.9l6.2-18.8
		l7.7-6.6c0,0-1.2-12.6-12.7-13.2l-6.4-0.8l-0.4-11.5L41.8,43.1z"/>
	<path id="XMLID_196_" class="st2" d="M62.8,67.7c-0.1-0.9-0.3-1.8-1-2.3c-0.4-0.3-0.9-0.4-1.4-0.4c-1.8-0.2-3.6-0.4-5.5-0.6
		c0.1-1.9,0.3-3.9,0.8-5.7c0.5-1.8,1.3-3.5,2.1-5.2c-0.2,0-0.5,0-0.8,0l-2.5-0.3c-1.4,3.6-2.4,7.3-3,11c-5-0.4-9.9-0.6-14.9-0.5
		c-0.3,0-0.5,0-0.8,0.1c0,0-0.1,0.1-0.1,0.1c0.1-3.7,0.5-7.5,1.5-11.1c-0.8,0-1.7,0.1-2.6,0.1c-1.6,7.2-2.8,14.5-2.5,21.8l4.2,5.6v0
		L40,85l9.6,4.1c2.4,0.2,4.8,0.3,7.2,0.3l5.4-16.3l1.1-1C63.1,70.7,63,69.2,62.8,67.7z"/>
	<path id="XMLID_195_" class="st9" d="M2.2,55L7,51.5C7,51.5,20.5,62,21,66S2.2,55,2.2,55z"/>
	<path id="XMLID_194_" class="st9" d="M17.5,65.1c0,0,1.3-4.3,9.4-4.6c8.1-0.3,19.7-4.8,19.7-4.8l2.5,4.5l-26.3,8.7L17.5,65.1z"/>
	<path id="XMLID_193_" class="st15" d="M0.9,53.9l16.3,9.4c0,0,3.2,1.5,7.3,0.6l25.4-5.1l-1.6,34.6l-24,3.9c0,0-5.9,2.2-8.7-1.4
		L1,89L0.9,53.9z"/>
	<path id="XMLID_192_" class="st16" d="M24.8,63.9l-0.3,0.1c-4.1,0.9-7.3-0.6-7.3-0.6l-0.4-0.2l-1.3,32.8l0.1,0.1
		c2.2,2.9,6.4,2,8,1.6L24.8,63.9z"/>
	<g id="XMLID_188_">
		<path id="XMLID_189_" class="st17" d="M25.4,95.7l0.9-30.8l0.1,0l22.2-4.1L46.9,92L25.4,95.7z M26.5,65.1l-0.9,30.4l21.1-3.7
			L48.3,61L26.5,65.1z"/>
	</g>
	<polygon id="XMLID_187_" class="st17" points="16.1,79.8 24.2,79.2 24.3,77.3 16.2,78 	"/>
	<polygon id="XMLID_186_" class="st17" points="15.8,85.9 24,85.3 24.2,81.1 16,81.7 	"/>
	<ellipse id="XMLID_185_" class="st2" cx="19.7" cy="92.9" rx="2.3" ry="2.9"/>
	<g id="XMLID_182_" class="st18">
		<path id="XMLID_119_" class="st5" d="M50.6,50.1l-0.3-9l-8.4,2l-0.3,7.4C44.5,50.8,47.6,50.6,50.6,50.1z"/>
	</g>
	<g id="XMLID_180_">
		<path id="XMLID_181_" class="st2" d="M28.7,28.9C28.7,28.9,28.6,28.9,28.7,28.9l-4.6-0.7c-0.3,0-0.5-0.3-0.5-0.7
			c0-0.3,0.3-0.5,0.7-0.5l4.5,0.7c0.3,0,0.5,0.3,0.5,0.7C29.2,28.7,29,28.9,28.7,28.9z"/>
	</g>
	<g id="XMLID_177_">
		<path id="XMLID_116_" class="st5" d="M46.3,6.5c-6-0.6-14,0.7-17.3,6.4c-1.6,2.9-2,6.3-2.1,9.6c-0.2,5.1,0,10.4,1.5,15.3
			c1.3,4.3,4.9,7.2,9.3,7.8c3.5,0.5,7,0.8,10.5,0.1c8.6-1.8,9.9-11.2,10.2-18.6c0.1-4.3,1.2-8.1-0.7-12.2c-1.9-4.1-5.6-7.3-10.1-8.2
			C47.2,6.6,46.7,6.5,46.3,6.5z"/>
	</g>
	<ellipse id="XMLID_176_" class="st8" cx="32" cy="29.8" rx="0.9" ry="2.2"/>
	<ellipse id="XMLID_175_" class="st8" cx="46.3" cy="29.8" rx="0.9" ry="2.2"/>
	<g id="XMLID_172_">
		<path id="XMLID_117_" class="st7" d="M32.4,23.6c0.7-0.2,2.3-0.6,2.6-1.4c0.3-0.7-0.2-1.4-0.9-1.7c-1.3-0.4-3,0.2-4.2,0.7
			c-0.6,0.2-1.3,0.7-1.6,1.4C28,23.5,28.7,24,29.5,24C30.6,24.2,31.3,23.8,32.4,23.6z"/>
	</g>
	<g id="XMLID_169_">
		<path id="XMLID_120_" class="st7" d="M46.8,23.6c-0.7-0.2-2.3-0.6-2.6-1.4c-0.3-0.7,0.2-1.4,0.9-1.7c1.3-0.4,3,0.2,4.2,0.7
			c0.6,0.2,1.3,0.7,1.6,1.4c0.3,0.9-0.4,1.4-1.1,1.4C48.6,24.2,47.9,23.8,46.8,23.6z"/>
	</g>
	<g id="XMLID_166_">
		<path id="XMLID_123_" class="st14" d="M54.4,16.8c-1.3,2.6-1.8,5.6-1.4,8.4c0.3,1.9,1,4.5,2.5,5.8c2.6,2.1,4.5-0.9,5.3-3.1
			c0.5-1.3,1.2-2.8,0.8-4.2c-0.5-2-1.7-3.6-2.7-5.4"/>
	</g>
	<g id="XMLID_163_">
		<path id="XMLID_129_" class="st14" d="M29.1,5.6c-3.8,1.7-5.9,4.6-6.5,8.7c-0.3,2.3-0.2,4.6-0.1,6.8c0,0.3,0.1,0.7,0.3,0.9
			c0.2,0.2,0.5,0.2,0.8,0.3c1.6,0.2,3.2,0.1,4.8,0c0-1.3,0.3-2.5,0.8-3.7c-0.1,1.3,0,2.7,0.4,4c3.8,0.2,7.7,0.1,11.5-0.2
			c0.2-1.2,0.3-2.3,0.5-3.5c0.4,1.2,0.7,2.3,1.1,3.5c2.8,0,5.7,0,8.5,0c0.4-1.5,0.6-2.9,0.6-4.4c0.3,1.5,0.5,3,0.8,4.4
			c0,0.1,8,0.3,8.3-0.4c0.2-0.6-0.6-2.2-0.7-2.9c-0.1-1.5-0.2-2.9-0.6-4.4C58.2,9.8,55.2,3.8,49.4,3.7c-1.5,0-3-0.5-4.5-0.5
			c-1.6,0-3.2,0-4.8,0.1C36.4,3.5,32.6,4,29.1,5.6z"/>
	</g>
	<g id="XMLID_160_">
		<path id="XMLID_131_" class="st5" d="M55.4,32.7c0.3-3.2,4.4-6.9,7.7-5.2c1.1,0.5,1.7,1.7,1.9,2.9c0.4,2.3-0.7,4.6-2.5,6.1
			c-1.8,1.4-4.2,1.9-6.5,1.6c-0.1,0-0.1,0-0.1-0.1c0-0.1,0.1-0.1,0.1,0"/>
	</g>
	<g id="XMLID_156_">
		<path id="XMLID_157_" class="st2" d="M36.7,30.9C36.7,30.9,36.7,31,36.7,30.9l0.1,0.1l0,0C36.7,31,36.7,31,36.7,30.9
			c0,0,0-0.1-0.1-0.2C36.6,30.8,36.6,30.8,36.7,30.9c-0.1-0.3-0.2-0.6-0.1-1c0-0.2,0.1-0.3,0.2-0.4c0.2-0.4,0.5-0.7,0.9-0.8
			c0,0,0,0,0,0c0-4.2-3.2-7.6-7.2-7.6c-4,0-7.2,3.4-7.2,7.6c0,4.2,3.2,7.6,7.2,7.6c3,0,5.5-1.9,6.6-4.7
			C36.9,31.4,36.8,31.1,36.7,30.9z M30.5,35c-3.3,0-6-2.9-6-6.4c0-3.5,2.7-6.4,6-6.4c3.3,0,6,2.9,6,6.4C36.5,32.2,33.8,35,30.5,35z"
			/>
	</g>
	<g id="XMLID_154_">
		<path id="XMLID_155_" class="st2" d="M39.9,27.9c-0.5-0.5-1-0.8-1.4-0.7c-0.6,0-1.1,0.5-1.1,0.5L36.5,27c0,0,0.8-0.9,2-1
			c0.8,0,1.6,0.3,2.3,1.1L39.9,27.9z"/>
	</g>
	<g id="XMLID_152_">
		<path id="XMLID_153_" class="st2" d="M63.1,28.1C63.1,28.1,63.1,28.1,63.1,28.1l-9.7-0.9c-0.3,0-0.6-0.3-0.5-0.6
			c0-0.3,0.3-0.6,0.6-0.5l9.7,0.9c0.3,0,0.6,0.3,0.5,0.6C63.7,27.8,63.4,28.1,63.1,28.1z"/>
	</g>
	<g id="XMLID_143_">
		<g id="XMLID_150_">
			<path id="XMLID_151_" class="st8" d="M39.4,28.5c-1.4-0.2-3,0.3-3.1,1.9c0,1.5,1.7,2.4,3,2.1c0.2-0.1,0.1-0.4-0.1-0.4
				c-1.1,0.2-2.3-0.5-2.5-1.7c-0.2-1.4,1.6-1.7,2.6-1.5C39.5,28.9,39.6,28.5,39.4,28.5L39.4,28.5z"/>
		</g>
		<g id="XMLID_148_">
			<path id="XMLID_149_" class="st8" d="M37,33.5c1.7,2.2,4.6,1.1,5.8-0.9c0.1-0.2-0.2-0.4-0.3-0.2c-1.1,1.8-3.6,2.9-5.1,0.9
				C37.2,33.1,36.8,33.3,37,33.5L37,33.5z"/>
		</g>
		<g id="XMLID_146_">
			<path id="XMLID_147_" class="st8" d="M57.1,36.9c0-3.1,1.9-5.8,4.9-6.8c0.2-0.1,0.1-0.5-0.1-0.4c-3.1,1.1-5.1,3.9-5.2,7.2
				C56.7,37.1,57.1,37.1,57.1,36.9L57.1,36.9z"/>
		</g>
		<g id="XMLID_144_">
			<path id="XMLID_145_" class="st8" d="M59.4,31.5c0.8,1.4,0.1,2.9-0.9,4c-0.2,0.2,0.1,0.5,0.3,0.3c1.1-1.2,1.9-2.9,1-4.5
				C59.6,31.1,59.3,31.3,59.4,31.5L59.4,31.5z"/>
		</g>
	</g>
	<g id="XMLID_140_" class="st13">
		<path id="XMLID_138_" class="st5" d="M56.9,37c0.3-2.5,1.7-5,3.7-6.5c0.6-0.4,1.3-0.7,1.9-0.3c0.2,0.2,0.3,0.4,0.4,0.7
			c0.3,1.3-0.4,2.7-1.2,3.8c-0.4,0.6-0.9,1.2-1.5,1.7c-0.8,0.5-1.7,0.7-2.6,0.8c-0.3,0-0.5,0.1-0.8,0"/>
	</g>
	<g id="XMLID_137_" class="st13">
		<path id="XMLID_139_" class="st5" d="M39.7,28.6c-0.8,0-1.7,0.2-2.3,0.7c-0.6,0.6-0.8,1.6-0.2,2.2c0.3,0.3,0.6,0.4,1,0.5
			c0.6,0.2,1.2,0.2,1.8,0.2c0.1-0.6,0.2-1.2,0.3-1.8c0.1-0.6,0.1-1.3-0.3-1.8"/>
	</g>
	<g id="XMLID_132_">
		<path id="XMLID_134_" class="st2" d="M46.9,36.2c-4,0-7.2-3.4-7.2-7.6c0-4.2,3.2-7.6,7.2-7.6s7.2,3.4,7.2,7.6
			C54.1,32.8,50.9,36.2,46.9,36.2z M46.9,22.3c-3.3,0-6,2.9-6,6.4c0,3.5,2.7,6.4,6,6.4c3.3,0,6-2.9,6-6.4
			C52.9,25.1,50.2,22.3,46.9,22.3z"/>
	</g>
	<g id="XMLID_128_" class="st19">
		<path id="XMLID_141_" class="st15" d="M48.7,85.2c-5.4-1.6-11.2-2.1-16.9-1.9c-6,0.1-12.4,0.9-17.6-2c-4.7-2.6-7.6-7.6-8.8-12.8
			c-0.9-4-1-8.2-0.8-12.4l-3.2-1.8l-0.4,0.2L1,89l14.6,7c2.8,3.6,8.7,1.4,8.7,1.4l24-3.9L48.7,85.2z"/>
	</g>
	<g id="XMLID_11_">
		<path id="XMLID_142_" class="st5" d="M62.9,55c-0.6-0.4-2.6-0.9-3.3-0.7c-2,0.8-3.9,4.4-2.6,14.8c1.8,13.8,3,16.4,3,16.4L40,83.1
			c-0.5-0.1-1.1-0.3-1.5-0.7c-0.2-0.2-0.4-0.4-0.6-0.6c-0.2-0.3-0.5-0.5-0.7-0.8c-0.7-0.9-1.7-2.8-2.9-3.1c-1-0.2-0.6,1-0.4,1.6
			c0.5,1,1.1,2,1.8,2.8c-1-0.2-2-0.3-3.1-0.3c-0.5,0-1.1,0-1.6,0c-0.5,0-1,0.1-1.4,0.3c-0.1,0.1-0.2,0.2-0.3,0.3
			c-0.1,0.1-0.1,0.3,0,0.4c0.1,0.2,0.5,0.3,0.7,0.4c0.4,0.1,0.9,0.1,1.3,0.2c0.9,0.1,1.8,0.2,2.7,0.3c-0.4,0.1-0.7,0-1,0
			c-1.1,0.1-2.2,0.5-3.3,0.7c-0.5,0.1-0.9,0.2-1.3,0.6c-0.1,0.1-0.2,0.3-0.2,0.5c0,0.2,0.2,0.3,0.3,0.4c0.3,0.1,0.6,0.2,1,0.2
			c1.8,0,3.5-0.3,5.3-0.4c-1.8,0.5-3.7,0.9-5.4,1.7c-0.1,0-0.2,0.1-0.3,0.2c-0.1,0.2,0,0.4,0.1,0.5c0.1,0.1,0.3,0.2,0.5,0.2
			c1.9,0.3,3.8-0.4,5.7-0.6c-1.4,0.7-3,0.8-4.3,1.6c-0.1,0.1-0.3,0.2-0.3,0.4c0,0.2,0.2,0.3,0.3,0.4c1.1,0.5,2.3-0.3,3.5-0.2
			c0.6,0,0.9,0.2,1.3,0.5c0.5,0.4,1.2,0.8,1.8,1.1c0.8,0.4,1.7,0.6,2.6,0.9c0.9,0.3,1.9,0.7,3,1c0.1,0,0.3,0.1,0.4,0.1l0,0
			c6.4,2.1,15.4,4.3,25.8,5c2,0.1,3.8-1.4,3.9-3.5C73.8,86,74.7,63.3,62.9,55z"/>
	</g>
	<g id="XMLID_7_">
		<path id="XMLID_8_" class="st17" d="M14.2,93.9L2.4,87.8l0-0.1l0.2-31.1L15.3,64l0,0.1L14.2,93.9z M2.6,87.7L14,93.6l1.1-29.5
			L2.8,57L2.6,87.7z"/>
	</g>
</g>
</svg>
